<?xml version="1.0" encoding="UTF-8"?>
<svg fill="#D2385E" width="100pt" height="100pt" version="1.1" viewBox="0 0 100 100" xmlns="http://www.w3.org/2000/svg">
 <g>
  <path d="m67.207 19.121l-2.9219 2.9648c-0.5625 0.57031-0.55469 1.4883 0.015625 2.0547 0.57031 0.5625 1.4883 0.55469 2.0547-0.015625l2.9219-2.9648c0.5625-0.57031 0.55469-1.4883-0.015625-2.0547-0.57422-0.5625-1.4922-0.55469-2.0547 0.015625z"/>
  <path d="m51.41 6.4375c-0.007812-0.80078-0.66406-1.4453-1.4648-1.4375-0.80078 0.007812-1.4453 0.66016-1.4375 1.4648l0.082032 9.5703c0.007812 0.80078 0.66016 1.4453 1.4648 1.4375 0.80078-0.007812 1.4453-0.66016 1.4375-1.4648z"/>
  <path d="m30.738 19.105c-0.57031 0.5625-0.57812 1.4805-0.015625 2.0547l2.9219 2.9648c0.5625 0.57031 1.4805 0.57812 2.0547 0.015625 0.57031-0.5625 0.57812-1.4805 0.015625-2.0547l-2.9219-2.9648c-0.5625-0.57031-1.4805-0.57812-2.0547-0.015625z"/>
  <path d="m32.77 80.879l2.9219-2.9648c0.5625-0.57031 0.55469-1.4883-0.015625-2.0547-0.57031-0.5625-1.4883-0.55469-2.0547 0.015625l-2.9219 2.9648c-0.5625 0.57031-0.55469 1.4883 0.015625 2.0547 0.57031 0.5625 1.4922 0.55469 2.0547-0.015625z"/>
  <path d="m50.031 95c0.80078-0.007812 1.4453-0.66016 1.4375-1.4648l-0.082031-9.5703c-0.007813-0.80078-0.66016-1.4453-1.4648-1.4375-0.80078 0.007812-1.4453 0.66016-1.4375 1.4648l0.082031 9.5703c0.007813 0.80078 0.66016 1.4453 1.4648 1.4375z"/>
  <path d="m66.332 75.879c-0.5625-0.57031-1.4805-0.57812-2.0547-0.015625-0.57031 0.5625-0.57812 1.4805-0.015625 2.0547l2.9219 2.9648c0.5625 0.57031 1.4805 0.57813 2.0547 0.015626 0.57031-0.5625 0.57812-1.4805 0.015625-2.0547z"/>
  <path d="m15.258 36.766v26.449c0 0.38281 0.15625 0.75781 0.42578 1.0273 0.26953 0.26953 0.64453 0.42578 1.0273 0.42578h21.891c0.80078 0 1.4492-0.64844 1.4492-1.4492s-0.64844-1.4492-1.4492-1.4492h-20.438l-0.003906-23.555h20.438c0.80078 0 1.4492-0.64844 1.4492-1.4492s-0.64844-1.4492-1.4492-1.4492h-21.891c-0.38281 0-0.75781 0.15625-1.0273 0.42578-0.26953 0.26562-0.42188 0.64062-0.42188 1.0234z"/>
  <path d="m84.742 36.766c0-0.38281-0.15625-0.75781-0.42578-1.0273-0.26953-0.26953-0.64453-0.42578-1.0273-0.42578h-21.891c-0.80078 0-1.4531 0.64844-1.4531 1.4531 0 0.80078 0.64844 1.4531 1.4531 1.4531h20.438v23.547h-20.438c-0.80078 0-1.4531 0.64844-1.4531 1.4531 0 0.80078 0.64844 1.4531 1.4531 1.4531h21.891c0.38281 0 0.75781-0.15625 1.0273-0.42578 0.26953-0.26953 0.42578-0.64453 0.42578-1.0273z"/>
 </g>
</svg>
