<?xml version="1.0" encoding="UTF-8"?>
<svg fill="#D2385E" width="100pt" height="100pt" version="1.1" viewBox="0 0 100 100" xmlns="http://www.w3.org/2000/svg">
 <g>
  <path d="m91.816 28.148h-83.637c-0.50391 0-0.91016-0.40625-0.91016-0.91016l0.003907-19.055c0-0.50391 0.40625-0.91016 0.91016-0.91016h83.637c0.5 0 0.90625 0.40625 0.90625 0.91016v19.055c0 0.50391-0.40625 0.91016-0.91016 0.91016zm-82.727-1.8203h81.816l0.003906-17.238h-81.82z"/>
  <path d="m91.816 92.727h-83.637c-0.5 0-0.90625-0.40625-0.90625-0.91016v-64.578c0-0.50391 0.40625-0.91016 0.91016-0.91016h83.637c0.50391 0 0.91016 0.40625 0.91016 0.91016l-0.003907 64.578c0 0.50391-0.40625 0.91016-0.91016 0.91016zm-82.727-1.8164h81.816l0.003906-62.762h-81.82z"/>
  <path d="m39.32 62.559v-15.52h-3.1719l-8.5547 15.543v4.0859h8.0664v4.9297h3.6602v-4.9297h2.457v-4.1094zm-3.6602 0h-4.5312l4.5312-8.3633z"/>
  <path d="m54.441 49.59c-1.082-1.707-2.5781-2.5508-4.4766-2.5508-1.918 0-3.3984 0.84375-4.4609 2.5078-1.3086 2.0312-1.9531 5.3398-1.9531 9.9414 0 4.6914 0.59375 7.9531 1.7617 9.7695 1.1836 1.8359 2.7344 2.7461 4.6523 2.7461 1.8984 0 3.3984-0.82031 4.4609-2.4844 1.2891-2.0312 1.9336-5.3594 1.9336-9.9844 0-4.6289-0.64453-7.957-1.918-9.9453zm-2.4219 16.059c-0.21094 0.92969-0.48828 1.5781-0.83594 1.9453-0.36719 0.34766-0.76562 0.53906-1.2188 0.53906-0.46875 0-0.87109-0.19531-1.2188-0.53906-0.34766-0.36719-0.64453-1.082-0.88672-2.1406-0.22656-1.082-0.34766-3.0469-0.34766-5.9219s0.14062-4.9062 0.40234-6.1172c0.19141-0.92969 0.46875-1.5781 0.82031-1.9453 0.36719-0.36719 0.76562-0.53906 1.2383-0.53906 0.45312 0 0.85547 0.17187 1.2188 0.53906 0.34766 0.36719 0.64453 1.082 0.87109 2.1602 0.22656 1.0586 0.34766 3.0273 0.34766 5.9023-0.003906 2.875-0.12891 4.9062-0.39062 6.1172z"/>
  <path d="m69.949 62.559v-15.52h-3.1719l-8.5547 15.543v4.0859h8.0664v4.9297h3.6602v-4.9297h2.457v-4.1094zm-3.6562 0h-4.5312l4.5312-8.3633z"/>
  <path d="m19.168 18.621c-0.125 0-0.23438-0.019532-0.34375-0.074219-0.10938-0.035156-0.21875-0.10938-0.28906-0.19922-0.089844-0.074218-0.16406-0.18359-0.19922-0.29297-0.054688-0.10938-0.074219-0.21875-0.074219-0.34375 0-0.23438 0.089843-0.47266 0.27344-0.63672 0.32812-0.34375 0.92578-0.34375 1.2734 0 0.18359 0.16406 0.27344 0.39844 0.27344 0.63672 0 0.125-0.019531 0.23437-0.074219 0.34375-0.035156 0.10937-0.10937 0.21875-0.19922 0.29297-0.16406 0.17969-0.40234 0.27344-0.64062 0.27344z"/>
  <path d="m34.168 18.621c-0.23438 0-0.47266-0.089844-0.63672-0.27344-0.16406-0.16406-0.27344-0.39844-0.27344-0.63672 0-0.23438 0.10938-0.47266 0.27344-0.63672 0.34375-0.34375 0.94531-0.34375 1.2891 0 0.16406 0.16406 0.25391 0.39844 0.25391 0.63672 0 0.23437-0.089844 0.47266-0.25391 0.63672-0.17578 0.17969-0.41406 0.27344-0.65234 0.27344z"/>
  <path d="m49.168 18.621c-0.23438 0-0.47266-0.089844-0.63672-0.27344-0.16406-0.16406-0.27344-0.39844-0.27344-0.63672 0-0.23438 0.10938-0.47266 0.27344-0.63672 0.25391-0.25391 0.65625-0.34375 1-0.19922 0.10938 0.035156 0.19922 0.10938 0.29297 0.19922 0.16406 0.16406 0.27344 0.39844 0.27344 0.63672 0 0.10937-0.035156 0.23437-0.074218 0.34375-0.054688 0.10937-0.125 0.21875-0.19922 0.29297-0.089844 0.089844-0.18359 0.16406-0.29297 0.19922-0.125 0.054687-0.23438 0.074219-0.36328 0.074219z"/>
  <path d="m80.832 18.621h-11.52c-0.50391 0-0.91016-0.40625-0.91016-0.91016 0-0.50391 0.40625-0.91016 0.91016-0.91016h11.52c0.50391 0 0.91016 0.40625 0.91016 0.91016-0.003907 0.50391-0.41016 0.91016-0.91016 0.91016z"/>
 </g>
</svg>
